<svg width="41" height="50" viewBox="0 0 41 50" fill="none" xmlns="http://www.w3.org/2000/svg">
<mask id="path-1-inside-1_19_244" fill="white">
<path fill-rule="evenodd" clip-rule="evenodd" d="M25.1215 1.06393C9.08729 3.24045 4.44902 5.4779 2.4954 11.9774C0.378497 19.0237 4.2874 25.2727 14.0563 30.459C17.647 32.365 19.2598 33.7141 19.2598 34.812C19.2598 37.5554 16.2478 38.3777 7.81111 37.9378C3.51534 37.7132 0 37.6439 0 37.7833C0 37.9227 1.00067 40.7287 2.22409 44.0181L4.44818 50L12.9007 49.6853C22.817 49.3162 28.4736 47.1113 31.6104 42.3918C34.0941 38.6541 34.1334 32.926 31.7033 28.9487C29.666 25.6159 28.2977 24.5188 21.808 21.0174C18.6075 19.29 17.0835 17.93 16.8992 16.636C16.5316 14.0562 18.9023 13.294 30.9396 12.1193L40.8333 11.1542L38.9752 5.64989C37.5994 1.57404 36.7017 0.109672 35.5159 0.00781801C34.635 -0.0673205 29.9574 0.407722 25.1215 1.06393Z"/>
</mask>
<path fill-rule="evenodd" clip-rule="evenodd" d="M25.1215 1.06393C9.08729 3.24045 4.44902 5.4779 2.4954 11.9774C0.378497 19.0237 4.2874 25.2727 14.0563 30.459C17.647 32.365 19.2598 33.7141 19.2598 34.812C19.2598 37.5554 16.2478 38.3777 7.81111 37.9378C3.51534 37.7132 0 37.6439 0 37.7833C0 37.9227 1.00067 40.7287 2.22409 44.0181L4.44818 50L12.9007 49.6853C22.817 49.3162 28.4736 47.1113 31.6104 42.3918C34.0941 38.6541 34.1334 32.926 31.7033 28.9487C29.666 25.6159 28.2977 24.5188 21.808 21.0174C18.6075 19.29 17.0835 17.93 16.8992 16.636C16.5316 14.0562 18.9023 13.294 30.9396 12.1193L40.8333 11.1542L38.9752 5.64989C37.5994 1.57404 36.7017 0.109672 35.5159 0.00781801C34.635 -0.0673205 29.9574 0.407722 25.1215 1.06393Z" fill="#333C4D" stroke="#E8E8E8" stroke-width="2" mask="url(#path-1-inside-1_19_244)"/>
</svg>
