<svg width="41" height="52" viewBox="0 0 41 52" fill="none" xmlns="http://www.w3.org/2000/svg">
<path fill-rule="evenodd" clip-rule="evenodd" d="M25.224 1.96622C9.12438 4.15162 4.46718 6.39821 2.50559 12.9242C0.380042 19.9993 4.3049 26.2738 14.1137 31.4812C17.719 33.395 19.3384 34.7497 19.3384 35.852C19.3384 38.6066 16.3141 39.4323 7.843 38.9906C3.52968 38.7651 0 38.6955 0 38.8355C0 38.9755 1.00476 41.7929 2.23317 45.0958L4.46634 51.102L12.9534 50.786C22.9102 50.4155 28.5898 48.2016 31.7394 43.4628C34.2332 39.7098 34.2727 33.9584 31.8327 29.9648C29.7871 26.6184 28.4132 25.5169 21.897 22.0011C18.6834 20.2667 17.1532 18.9012 16.9682 17.6018C16.5991 15.0115 18.9794 14.2462 31.0659 13.0667L41 12.0977L39.1343 6.5709C37.7528 2.47841 36.8515 1.00807 35.6609 0.905799C34.7764 0.830354 30.0797 1.30734 25.224 1.96622Z" fill="#333C4D"/>
</svg>
