<svg width="141" height="70" viewBox="0 0 141 70" fill="none" xmlns="http://www.w3.org/2000/svg">
<g clip-path="url(#clip0_55_1166)">
<path d="M84.0134 20.1707V34.2222H82.7846V26.7945C82.7846 25.3099 82.8234 24.0654 82.9032 22.821L82.8244 22.8015C82.4666 23.8049 81.9105 25.1485 81.3952 26.494L79.688 30.9109H78.4582L76.7509 26.4931C76.2357 25.1475 75.6786 23.8039 75.3218 22.7996L75.242 22.82C75.3218 24.0645 75.3607 25.3089 75.3607 26.7945V34.2222H74.1308V20.1697H75.4414L77.9215 26.2325C78.3173 27.2669 78.6878 28.3107 79.0327 29.3631H79.1125C79.4574 28.3107 79.8279 27.2669 80.2237 26.2325L82.7048 20.1697L84.0134 20.1707ZM94.8897 29.8667V24.5263C94.8897 22.3592 93.9564 21.1138 92.1509 21.1138C90.3446 21.1138 89.4122 22.3592 89.4122 24.5263V29.8667C89.4122 32.0347 90.3455 33.2792 92.1509 33.2792C93.9573 33.2792 94.8897 32.0347 94.8897 29.8667ZM88.1619 29.8667V24.5263C88.1619 21.6971 89.6504 19.9102 92.1509 19.9102C94.6515 19.9102 96.14 21.6971 96.14 24.5263V29.8667C96.14 32.6978 94.6515 34.4828 92.1509 34.4828C89.6504 34.4828 88.1619 32.6978 88.1619 29.8667ZM106.043 21.3354H102.57L102.331 28.1604C102.251 30.4286 101.816 32.0347 101.181 33.0585H106.042L106.043 21.3354ZM108.464 33.0585V36.5313H107.273V34.2222H100.088V36.5313H98.8991V33.0585H99.6516C100.446 32.2758 101.081 30.3479 101.161 27.8396L101.398 20.1707H107.273V33.0585H108.464ZM118.367 20.1707L114.874 31.7139C114.397 33.2792 113.544 34.4021 111.837 34.4021H111.361V33.2189H111.837C112.909 33.2189 113.425 32.4159 113.743 31.3328L114.2 29.8453L110.646 20.1717H111.956L114.736 28.0399L117.096 20.1707H118.367ZM119.657 33.2179C120.57 33.2179 121.006 32.4363 121.126 31.3318C121.304 29.8268 121.542 25.8718 121.741 20.1707H127.714V34.2222H126.484V21.3345H122.911C122.732 25.7717 122.555 29.786 122.316 31.5136C122.097 33.2996 121.225 34.4031 119.657 34.4031V33.2179ZM135.791 33.0585C137.359 33.0585 138.471 32.0347 138.471 30.067C138.471 28.1809 137.359 27.197 135.791 27.197H133.468V33.0585H135.791ZM132.239 20.1707H133.468V26.0332H135.792C138.114 26.0332 139.72 27.5382 139.72 30.0679C139.72 32.6774 138.114 34.2222 135.792 34.2222H132.239V20.1707ZM78.4465 48.3457L77.4597 44.3265C77.3347 43.8219 77.2254 43.3135 77.132 42.8021H77.1048C77.063 43.0384 76.9259 43.7306 76.7752 44.3265L75.7884 48.3447L78.4465 48.3457ZM78.638 49.1206H75.5969L75.0359 51.3927H74.1318L76.6518 41.6938H77.5832L80.1041 51.3927H79.2L78.638 49.1206ZM85.637 48.7463C85.637 47.4853 84.8282 46.8213 83.6236 46.8213H82.1565V50.5896H83.7723C85.0197 50.5896 85.637 50.0208 85.637 48.7463ZM82.1565 42.4968V46.0163H83.5827C84.692 46.0163 85.2394 45.4077 85.2394 44.2157C85.2394 43.0384 84.692 42.4968 83.5546 42.4968H82.1575H82.1565ZM86.5004 48.7463C86.5004 50.4778 85.4727 51.3927 83.7733 51.3927H81.3087V41.6938H83.5546C85.1568 41.6938 86.1027 42.6077 86.1027 44.2157C86.1027 45.4213 85.6098 46.1553 84.8573 46.3633C85.8704 46.5986 86.5004 47.4435 86.5004 48.7463ZM92.0051 42.4978H89.8954V51.3936H89.0457V42.4978H86.9369V41.6938H92.0051V42.4978ZM97.6887 48.3865V44.7009C97.6887 43.2036 97.0451 42.3452 95.7977 42.3452C94.5533 42.3452 93.9077 43.2046 93.9077 44.7009V48.3865C93.9077 49.8828 94.5523 50.7422 95.7977 50.7422C97.0451 50.7422 97.6887 49.8828 97.6887 48.3865ZM93.0454 48.3865V44.7009C93.0454 42.7467 94.0721 41.5139 95.7977 41.5139C97.5244 41.5139 98.5521 42.7467 98.5521 44.7009V48.3865C98.5521 50.3407 97.5244 51.5735 95.7977 51.5735C94.0721 51.5735 93.0454 50.3407 93.0454 48.3865ZM107.222 41.6938V51.3936H106.372V46.2671C106.372 45.2414 106.4 44.382 106.453 43.5225L106.4 43.5089C106.153 44.2021 105.77 45.1306 105.414 46.059L104.235 49.107H103.386L102.208 46.059C101.852 45.1306 101.469 44.2021 101.221 43.5089L101.166 43.5225C101.221 44.382 101.248 45.2414 101.248 46.2671V51.3936H100.399V41.6938H101.303L103.016 45.8782C103.262 46.5024 103.605 47.4999 103.784 48.0404H103.838C104.016 47.4999 104.357 46.5024 104.605 45.8782L106.317 41.6938H107.222ZM112.74 48.3447L111.754 44.3265C111.628 43.822 111.519 43.3136 111.425 42.8021H111.398C111.356 43.0384 111.219 43.7306 111.068 44.3265L110.082 48.3447H112.74ZM112.932 49.1206H109.89L109.329 51.3927H108.425L110.945 41.6938H111.876L114.398 51.3927H113.494L112.932 49.1206ZM119.397 42.4978H117.287V51.3936H116.437V42.4978H114.328V41.6938H119.396L119.397 42.4978ZM120.695 41.6938H121.544V47.8324C121.544 48.3165 121.532 49.2032 121.505 49.6893L121.544 49.7029C121.751 49.1687 121.975 48.6415 122.217 48.1221L125.011 41.6938H125.971V51.3936H125.121V45.0061L125.135 43.3854L125.106 43.3709C125.025 43.5915 124.737 44.2847 124.6 44.6172L121.627 51.3936H120.695V41.6938ZM129.613 46.6686L128.928 47.6107V51.3927H128.077V41.6938H128.928V46.3215L129.708 45.185L132.161 41.6938H133.216L130.16 45.92L133.599 51.3936H132.586L129.613 46.6686ZM138.063 48.3447L137.076 44.3265C136.951 43.822 136.841 43.3136 136.748 42.8021H136.721C136.68 43.0384 136.542 43.7306 136.392 44.3265L135.405 48.3447H138.063ZM138.255 49.1206H135.214L134.652 51.3927H133.747L136.267 41.6938H137.2L139.721 51.3927H138.817L138.255 49.1206Z" fill="#D11149"/>
<path d="M58.3818 13.7473L37.1718 1.36116C35.647 0.469781 33.9126 0 32.1464 0C30.3801 0 28.6457 0.469781 27.1209 1.36116L5.91287 13.7473C2.80371 15.5634 0.888428 18.9195 0.888428 22.5517V47.322C0.888428 50.9542 2.80371 54.3113 5.91287 56.1274L27.1219 68.5126C28.6465 69.4043 30.381 69.8743 32.1473 69.8743C33.9136 69.8743 35.6481 69.4043 37.1727 68.5126L58.3818 56.1264C61.4909 54.3113 63.4062 50.9542 63.4062 47.322V22.5517C63.4062 18.9195 61.4909 15.5634 58.3818 13.7473Z" fill="#D11149"/>
<path d="M61.3927 53.4235C61.8127 52.8576 62.1705 52.2471 62.4661 51.6054H50.2093V20.3125H45.0273L37.3565 51.6054H32.5381V20.3135H24.8537V51.6054H21.7717V20.3135H14.0873V51.6054H1.82855C2.12314 52.2471 2.48189 52.8586 2.90286 53.4244H16.3876V22.1325H19.4695V53.4235H27.1549V22.1325H30.2369V53.4235H39.2533L46.9251 22.1325H47.907V53.4235H61.3918H61.3927Z" fill="white"/>
</g>
<defs>
<clipPath id="clip0_55_1166">
<rect width="140.805" height="70" fill="white"/>
</clipPath>
</defs>
</svg>
