<svg viewBox="0 0 121 130" fill="none" xmlns="http://www.w3.org/2000/svg">
<path fill-rule="evenodd" clip-rule="evenodd" d="M57.2919 0.886415C59.4327 -0.292868 62.0687 -0.292868 64.2064 0.886415C74.7847 6.71474 106.617 24.2585 117.199 30.0868C119.34 31.263 120.658 33.4421 120.658 35.8006C120.658 47.4573 120.658 82.5417 120.658 94.1983C120.658 96.5569 119.34 98.7359 117.199 99.9152C106.621 105.744 74.7879 123.287 64.2064 129.116C62.0655 130.295 59.4296 130.295 57.2919 129.116C46.7135 123.287 14.8808 105.744 4.29935 99.9152C2.16161 98.7359 0.843658 96.56 0.843658 94.2014C0.843658 82.5448 0.843658 47.4604 0.843658 35.8037C0.843658 33.4452 2.16161 31.2661 4.3025 30.0868C14.8777 24.2585 46.7167 6.71474 57.2919 0.886415Z" fill="#283593"/>
<path fill-rule="evenodd" clip-rule="evenodd" d="M1.80217 97.2035C0.963472 96.1016 0.843658 95.0554 0.843658 93.6471C0.843658 82.0586 0.843658 47.1753 0.843658 35.5837C0.843658 33.2375 2.15846 31.0708 4.29304 29.9008C14.8335 24.1065 46.559 6.6649 57.0995 0.867536C59.2341 -0.305556 62.1254 -0.280794 64.26 0.892299C74.8005 6.68657 106.419 23.9796 116.959 29.7739C117.811 30.2444 118.46 30.8108 119.04 31.5568L1.80217 97.2035Z" fill="#5C6BC0"/>
<path fill-rule="evenodd" clip-rule="evenodd" d="M60.7507 21.6675C85.1139 21.6675 104.893 41.0839 104.893 65.0007C104.893 88.9176 85.1139 108.334 60.7507 108.334C36.3874 108.334 16.6086 88.9176 16.6086 65.0007C16.6086 41.0839 36.3874 21.6675 60.7507 21.6675ZM60.7507 43.3341C72.9307 43.3341 82.8217 53.0407 82.8217 65.0007C82.8217 76.9576 72.9307 86.6673 60.7507 86.6673C48.5706 86.6673 38.6797 76.9576 38.6797 65.0007C38.6797 53.0407 48.5675 43.3341 60.7507 43.3341Z" fill="white"/>
<path fill-rule="evenodd" clip-rule="evenodd" d="M119.034 31.5874C120.661 33.0824 120.629 35.3357 120.629 37.1093C120.629 48.8557 120.528 82.2656 120.658 94.012C120.67 95.2377 120.257 96.5285 119.639 97.5004L59.4674 65.0004L119.034 31.5874Z" fill="#3949AB"/>
</svg>
