<svg width="41" height="40" viewBox="0 0 41 40" fill="none" xmlns="http://www.w3.org/2000/svg">
<path d="M39.7109 0.00493977H1.28906C1.18305 -0.00766924 1.07556 0.0039367 0.974689 0.0388841C0.873816 0.0738314 0.782185 0.131209 0.706697 0.206697C0.631209 0.282185 0.573831 0.373816 0.538884 0.474689C0.503937 0.575563 0.492331 0.683051 0.50494 0.78906V39.2109C0.492331 39.3169 0.503937 39.4244 0.538884 39.5253C0.573831 39.6262 0.631209 39.7178 0.706697 39.7933C0.782185 39.8688 0.873816 39.9262 0.974689 39.9611C1.07556 39.9961 1.18305 40.0077 1.28906 39.9951H39.7109C39.8169 40.0077 39.9244 39.9961 40.0253 39.9611C40.1262 39.9262 40.2178 39.8688 40.2933 39.7933C40.3688 39.7178 40.4262 39.6262 40.4611 39.5253C40.4961 39.4244 40.5077 39.3169 40.4951 39.2109V0.78906C40.5077 0.683051 40.4961 0.575563 40.4611 0.474689C40.4262 0.373816 40.3688 0.282185 40.2933 0.206697C40.2178 0.131209 40.1262 0.0738314 40.0253 0.0388841C39.9244 0.0039367 39.8169 -0.00766924 39.7109 0.00493977ZM38.9268 38.4268H2.07318V1.57318H38.9268V38.4268Z" fill="#333C4D"/>
<path d="M8.34613 26.665H20.8921C20.9981 26.6776 21.1055 26.666 21.2064 26.6311C21.3073 26.5961 21.3989 26.5387 21.4744 26.4633C21.5499 26.3878 21.6073 26.2961 21.6422 26.1953C21.6772 26.0944 21.6888 25.9869 21.6762 25.8809V7.06201C21.6888 6.956 21.6772 6.84851 21.6422 6.74764C21.6073 6.64677 21.5499 6.55513 21.4744 6.47965C21.3989 6.40416 21.3073 6.34678 21.2064 6.31183C21.1055 6.27689 20.9981 6.26528 20.8921 6.27789H8.34613C8.24012 6.26528 8.13263 6.27689 8.03176 6.31183C7.93089 6.34678 7.83926 6.40416 7.76377 6.47965C7.68828 6.55513 7.6309 6.64677 7.59596 6.74764C7.56101 6.84851 7.5494 6.956 7.56201 7.06201V25.8809C7.5494 25.9869 7.56101 26.0944 7.59596 26.1953C7.6309 26.2961 7.68828 26.3878 7.76377 26.4633C7.83926 26.5387 7.93089 26.5961 8.03176 26.6311C8.13263 26.666 8.24012 26.6776 8.34613 26.665ZM9.13025 25.0968V16.7851L9.60072 17.0987C10.1614 17.6002 10.8872 17.8775 11.6394 17.8775C12.3917 17.8775 13.1175 17.6002 13.6781 17.0987C13.7998 16.9465 13.9553 16.8248 14.1323 16.7431C14.3092 16.6615 14.5027 16.6221 14.6975 16.6283C14.9038 16.6217 15.1089 16.6604 15.2986 16.7417C15.4883 16.823 15.6578 16.9448 15.7953 17.0987C16.3467 17.6157 17.0782 17.8971 17.834 17.8829C18.583 17.861 19.3021 17.5844 19.8727 17.0987L20.1079 16.8635V25.0968H9.13025ZM20.1079 7.84613V15.1384C19.6482 15.2908 19.2222 15.5304 18.8533 15.8442C18.7316 15.9964 18.5762 16.1181 18.3992 16.1998C18.2223 16.2814 18.0288 16.3208 17.834 16.3146C17.6277 16.3212 17.4226 16.2825 17.2329 16.2012C17.0432 16.1199 16.8737 15.9981 16.7362 15.8442C16.1847 15.3272 15.4533 15.0458 14.6975 15.06C13.9485 15.0819 13.2294 15.3585 12.6588 15.8442C12.5337 15.9926 12.3776 16.112 12.2015 16.1939C12.0255 16.2758 11.8336 16.3182 11.6394 16.3182C11.4453 16.3182 11.2534 16.2758 11.0773 16.1939C10.9013 16.112 10.7452 15.9926 10.6201 15.8442C10.1913 15.4864 9.67866 15.2436 9.13025 15.1384V7.84613H20.1079ZM30.3015 14.1191C31.0769 14.1191 31.8349 13.8892 32.4797 13.4583C33.1244 13.0275 33.6269 12.4152 33.9237 11.6988C34.2204 10.9824 34.298 10.1941 34.1468 9.43362C33.9955 8.6731 33.6221 7.97451 33.0738 7.42621C32.5255 6.8779 31.8269 6.5045 31.0664 6.35322C30.3058 6.20194 29.5175 6.27959 28.8011 6.57633C28.0847 6.87307 27.4724 7.37558 27.0416 8.02032C26.6108 8.66506 26.3809 9.42307 26.3809 10.1985C26.3809 10.7133 26.4823 11.2232 26.6793 11.6988C26.8764 12.1745 27.1651 12.6067 27.5292 12.9708C28.2645 13.706 29.2617 14.1191 30.3015 14.1191ZM30.3015 7.84613C30.7667 7.84613 31.2215 7.98409 31.6084 8.24257C31.9952 8.50105 32.2967 8.86844 32.4748 9.29828C32.6528 9.72812 32.6994 10.2011 32.6087 10.6574C32.5179 11.1137 32.2938 11.5329 31.9649 11.8619C31.6359 12.1908 31.2167 12.4149 30.7604 12.5056C30.3041 12.5964 29.8311 12.5498 29.4013 12.3718C28.9714 12.1937 28.6041 11.8922 28.3456 11.5054C28.0871 11.1185 27.9491 10.6637 27.9491 10.1985C27.9382 9.88662 27.9915 9.57584 28.1059 9.28548C28.2202 8.99513 28.3931 8.73141 28.6138 8.51075C28.8344 8.29009 29.0981 8.11721 29.3885 8.00287C29.6788 7.88853 29.9896 7.83518 30.3015 7.84613ZM30.3015 24.3126C31.0769 24.3126 31.8349 24.0827 32.4797 23.6519C33.1244 23.2211 33.6269 22.6088 33.9237 21.8924C34.2204 21.176 34.298 20.3877 34.1468 19.6272C33.9955 18.8667 33.6221 18.1681 33.0738 17.6198C32.5255 17.0715 31.8269 16.6981 31.0664 16.5468C30.3058 16.3955 29.5175 16.4731 28.8011 16.7699C28.0847 17.0666 27.4724 17.5691 27.0416 18.2139C26.6108 18.8586 26.3809 19.6166 26.3809 20.392C26.3809 21.4319 26.794 22.4291 27.5292 23.1643C28.2645 23.8996 29.2617 24.3126 30.3015 24.3126ZM30.3015 18.0397C30.7667 18.0397 31.2215 18.1777 31.6084 18.4361C31.9952 18.6946 32.2967 19.062 32.4748 19.4918C32.6528 19.9217 32.6994 20.3947 32.6087 20.851C32.5179 21.3073 32.2938 21.7264 31.9649 22.0554C31.6359 22.3844 31.2167 22.6084 30.7604 22.6992C30.3041 22.79 29.8311 22.7434 29.4013 22.5653C28.9714 22.3873 28.6041 22.0858 28.3456 21.6989C28.0871 21.3121 27.9491 20.8573 27.9491 20.392C27.9382 20.0802 27.9915 19.7694 28.1059 19.479C28.2202 19.1887 28.3931 18.925 28.6138 18.7043C28.8344 18.4837 29.0981 18.3108 29.3885 18.1964C29.6788 18.0821 29.9896 18.0287 30.3015 18.0397ZM9.13025 35.2903C9.5955 35.2903 10.0503 35.1524 10.4372 34.8939C10.824 34.6354 11.1255 34.268 11.3035 33.8382C11.4816 33.4083 11.5282 32.9354 11.4374 32.479C11.3466 32.0227 11.1226 31.6036 10.7936 31.2746C10.4646 30.9456 10.0455 30.7216 9.58917 30.6308C9.13286 30.54 8.65988 30.5866 8.23004 30.7647C7.8002 30.9427 7.43282 31.2442 7.17433 31.6311C6.91585 32.0179 6.77789 32.4727 6.77789 32.938C6.76694 33.2498 6.82029 33.5606 6.93463 33.851C7.04897 34.1413 7.22185 34.405 7.44251 34.6257C7.66317 34.8464 7.92689 35.0192 8.21724 35.1336C8.5076 35.2479 8.81838 35.3013 9.13025 35.2903ZM9.13025 32.1538C9.28533 32.1538 9.43694 32.1998 9.56588 32.286C9.69483 32.3722 9.79533 32.4946 9.85468 32.6379C9.91403 32.7812 9.92956 32.9388 9.8993 33.0909C9.86905 33.243 9.79437 33.3828 9.68471 33.4924C9.57505 33.6021 9.43533 33.6768 9.28323 33.707C9.13112 33.7373 8.97346 33.7217 8.83018 33.6624C8.6869 33.6031 8.56444 33.5025 8.47828 33.3736C8.39212 33.2447 8.34613 33.0931 8.34613 32.938C8.33352 32.832 8.34513 32.7245 8.38007 32.6236C8.41502 32.5227 8.4724 32.4311 8.54789 32.3556C8.62338 32.2801 8.71501 32.2227 8.81588 32.1878C8.91675 32.1528 9.02424 32.1412 9.13025 32.1538ZM16.9715 30.5856C16.5062 30.5856 16.0514 30.7236 15.6646 30.9821C15.2777 31.2405 14.9762 31.6079 14.7982 32.0378C14.6201 32.4676 14.5735 32.9406 14.6643 33.3969C14.7551 33.8532 14.9791 34.2724 15.3081 34.6013C15.6371 34.9303 16.0562 35.1544 16.5125 35.2451C16.9688 35.3359 17.4418 35.2893 17.8717 35.1113C18.3015 34.9332 18.6689 34.6317 18.9274 34.2449C19.1858 33.858 19.3238 33.4032 19.3238 32.938C19.3348 32.6261 19.2814 32.3153 19.1671 32.025C19.0527 31.7346 18.8798 31.4709 18.6592 31.2502C18.4385 31.0296 18.1748 30.8567 17.8845 30.7424C17.5941 30.628 17.2833 30.5747 16.9715 30.5856ZM16.9715 33.7221C16.8164 33.7221 16.6648 33.6761 16.5358 33.5899C16.4069 33.5038 16.3064 33.3813 16.247 33.238C16.1877 33.0948 16.1721 32.9371 16.2024 32.785C16.2327 32.6329 16.3073 32.4932 16.417 32.3835C16.5267 32.2738 16.6664 32.1992 16.8185 32.1689C16.9706 32.1387 17.1282 32.1542 17.2715 32.2135C17.4148 32.2729 17.5373 32.3734 17.6234 32.5023C17.7096 32.6313 17.7556 32.7829 17.7556 32.938C17.7682 33.044 17.7566 33.1515 17.7216 33.2523C17.6867 33.3532 17.6293 33.4448 17.5538 33.5203C17.4783 33.5958 17.3867 33.6532 17.2858 33.6881C17.1849 33.7231 17.0775 33.7347 16.9715 33.7221ZM24.8127 35.2903C25.2779 35.2903 25.7327 35.1524 26.1196 34.8939C26.5064 34.6354 26.8079 34.268 26.9859 33.8382C27.164 33.4083 27.2106 32.9354 27.1198 32.479C27.029 32.0227 26.805 31.6036 26.476 31.2746C26.147 30.9456 25.7279 30.7216 25.2716 30.6308C24.8153 30.54 24.3423 30.5866 23.9124 30.7647C23.4826 30.9427 23.1152 31.2442 22.8567 31.6311C22.5983 32.0179 22.4603 32.4727 22.4603 32.938C22.4493 33.2498 22.5027 33.5606 22.617 33.851C22.7314 34.1413 22.9043 34.405 23.1249 34.6257C23.3456 34.8464 23.6093 35.0192 23.8996 35.1336C24.19 35.2479 24.5008 35.3013 24.8127 35.2903ZM24.8127 32.1538C24.9677 32.1538 25.1193 32.1998 25.2483 32.286C25.3772 32.3722 25.4777 32.4946 25.5371 32.6379C25.5964 32.7812 25.612 32.9388 25.5817 33.0909C25.5514 33.243 25.4768 33.3828 25.3671 33.4924C25.2574 33.6021 25.1177 33.6768 24.9656 33.707C24.8135 33.7373 24.6559 33.7217 24.5126 33.6624C24.3693 33.6031 24.2468 33.5025 24.1607 33.3736C24.0745 33.2447 24.0285 33.0931 24.0285 32.938C24.0159 32.832 24.0275 32.7245 24.0625 32.6236C24.0974 32.5227 24.1548 32.4311 24.2303 32.3556C24.3058 32.2801 24.3974 32.2227 24.4983 32.1878C24.5992 32.1528 24.7066 32.1412 24.8127 32.1538ZM30.3015 32.938C30.3015 33.4032 30.4395 33.858 30.6979 34.2449C30.9564 34.6317 31.3238 34.9332 31.7536 35.1113C32.1835 35.2893 32.6565 35.3359 33.1128 35.2451C33.5691 35.1544 33.9882 34.9303 34.3172 34.6013C34.6462 34.2724 34.8702 33.8532 34.961 33.3969C35.0518 32.9406 35.0052 32.4676 34.8271 32.0378C34.6491 31.6079 34.3476 31.2405 33.9608 30.9821C33.5739 30.7236 33.1191 30.5856 32.6539 30.5856C32.342 30.5747 32.0312 30.628 31.7408 30.7424C31.4505 30.8567 31.1868 31.0296 30.9661 31.2502C30.7455 31.4709 30.5726 31.7346 30.4582 32.025C30.3439 32.3153 30.2905 32.6261 30.3015 32.938ZM33.438 32.938C33.438 33.0931 33.392 33.2447 33.3058 33.3736C33.2197 33.5025 33.0972 33.6031 32.9539 33.6624C32.8106 33.7217 32.653 33.7373 32.5009 33.707C32.3488 33.6768 32.2091 33.6021 32.0994 33.4924C31.9897 33.3828 31.9151 33.243 31.8848 33.0909C31.8545 32.9388 31.8701 32.7812 31.9294 32.6379C31.9888 32.4946 32.0893 32.3722 32.2182 32.286C32.3472 32.1998 32.4988 32.1538 32.6539 32.1538C32.7599 32.1412 32.8673 32.1528 32.9682 32.1878C33.0691 32.2227 33.1607 32.2801 33.2362 32.3556C33.3117 32.4311 33.3691 32.5227 33.404 32.6236C33.439 32.7245 33.4506 32.832 33.438 32.938Z" fill="#333C4D"/>
</svg>
