<svg width="39" height="40" viewBox="0 0 39 40" fill="none" xmlns="http://www.w3.org/2000/svg">
<path d="M38.8532 29.7131L36.4522 24.9582C36.2209 24.5 35.8653 24.1147 35.4253 23.8454C34.9852 23.5761 34.4782 23.4335 33.9609 23.4335H33.3086C32.8268 21.1945 31.9704 19.0511 30.7746 17.0919C29.3402 14.404 27.8573 11.6244 27.8573 8.27586C27.8573 6.08097 26.9768 3.97597 25.4095 2.42394C23.8422 0.871919 21.7166 0 19.5001 0C17.2837 0 15.158 0.871919 13.5907 2.42394C12.0235 3.97597 11.143 6.08097 11.143 8.27586C10.9454 11.3276 9.96312 14.2787 8.28957 16.8487C7.03791 18.8763 6.1559 21.1061 5.68381 23.4361H5.04003C4.52255 23.4362 4.0153 23.5789 3.57512 23.8484C3.13494 24.1178 2.77921 24.5033 2.54779 24.9617L0.147065 29.7157C0.0309029 29.9458 -0.0179894 30.2034 0.00590957 30.4595C0.0298085 30.7156 0.125547 30.96 0.282311 31.1651L5.89455 38.5103C6.53268 39.2689 7.4237 39.7764 8.40666 39.9413C9.38963 40.1062 10.3997 39.9176 11.2545 39.4095L13.8641 37.859C15.6943 38.3879 17.5937 38.6446 19.5001 38.6207C21.4077 38.6451 23.3083 38.3881 25.1395 37.8583L27.7458 39.4069C28.3924 39.7939 29.1333 39.999 29.8887 40C30.5131 39.9967 31.1289 39.8566 31.6922 39.5898C32.2554 39.3231 32.752 38.9362 33.1465 38.457L38.7179 31.1625C38.8745 30.9573 38.9702 30.713 38.9941 30.4569C39.018 30.2008 38.9692 29.9432 38.8532 29.7131ZM28.3116 18.381C29.2615 19.9608 29.9919 21.6603 30.4832 23.4335H27.4923C27.1423 22.1812 26.6857 20.9605 26.1273 19.7846C25.604 18.7046 25.1938 17.5744 24.9032 16.4116C25.4337 15.8026 25.9019 15.143 26.3007 14.4423L26.3542 14.3433C26.9344 15.7224 27.5878 17.0702 28.3116 18.381ZM13.9287 26.2069C14.0361 24.3504 14.5457 22.5385 15.4229 20.8943C15.7799 20.0909 16.1414 19.2727 16.4342 18.4126C17.3472 18.9985 18.4121 19.3104 19.5001 19.3104C20.5882 19.3104 21.653 18.9985 22.5661 18.4126C22.8586 19.2727 23.2207 20.0909 23.5773 20.8943C24.4545 22.5385 24.9641 24.3504 25.0715 26.2069C25.0715 27.9836 24.4941 30.3448 19.5001 30.3448C14.5062 30.3448 13.9287 27.9836 13.9287 26.2069ZM22.9969 14.379C22.6014 14.9646 22.0855 15.4608 21.4829 15.8353C20.8803 16.2097 20.2046 16.4538 19.5001 16.5517C18.7955 16.4537 18.1198 16.2095 17.5172 15.8349C16.9145 15.4604 16.3986 14.964 16.0031 14.3783C18.2677 13.5976 20.7323 13.5983 22.9969 14.379ZM13.9287 8.27586C13.9287 6.8126 14.5157 5.40927 15.5605 4.37458C16.6054 3.3399 18.0225 2.75862 19.5001 2.75862C20.9778 2.75862 22.3949 3.3399 23.4397 4.37458C24.4846 5.40927 25.0715 6.8126 25.0715 8.27586C25.0776 9.73177 25.2968 11.1791 25.7224 12.5727C25.0723 12.216 24.3876 11.9247 23.6787 11.7033V8.27586H20.893V11.1092C19.9671 11.0096 19.0331 11.0096 18.1073 11.1092V8.27586H15.3215V11.7033C14.6067 11.9261 13.9166 12.2206 13.2622 12.5822C13.6981 11.1873 13.9227 9.73604 13.9287 8.27586ZM10.7455 18.1506C11.441 16.906 12.0708 15.6265 12.6324 14.3172L12.6998 14.4414C13.0986 15.142 13.5668 15.8017 14.0974 16.4106C13.8068 17.5734 13.3966 18.7036 12.8732 19.7836C12.3142 20.9603 11.8571 22.1819 11.5068 23.4352H8.50309C8.98202 21.5734 9.73773 19.7924 10.7455 18.1506ZM12.6548 35.361L9.82088 37.0447C9.54667 37.2124 9.22166 37.2794 8.90266 37.2338C8.58366 37.1883 8.29097 37.0332 8.07577 36.7956L3.02596 30.1839L5.03975 26.1948H10.2017L13.2183 33.6349C13.3499 33.9416 13.3654 34.285 13.2619 34.6021C13.1583 34.9192 12.9428 35.1886 12.6548 35.361ZM15.8806 35.5233C16.217 34.5767 16.1891 33.5405 15.8024 32.613C17.0035 32.9576 18.2498 33.1229 19.5001 33.1034C20.7512 33.1229 21.9982 32.9572 23.1998 32.6119C22.8179 33.5405 22.7909 34.5752 23.1238 35.5222C20.7311 35.9743 18.2733 35.9754 15.8806 35.5233ZM30.9653 36.7417C30.7533 36.9955 30.4563 37.1655 30.1284 37.2207C29.8004 37.2758 29.4634 37.2124 29.1787 37.0421L26.3453 35.3583C26.0537 35.1819 25.8369 34.9064 25.7354 34.5833C25.6339 34.2602 25.6547 33.9116 25.7937 33.6025L28.7981 26.1921H33.9598L35.974 30.1811L30.9653 36.7417Z" fill="#333C4D"/>
</svg>
