<svg width="41" height="40" viewBox="0 0 41 40" fill="none" xmlns="http://www.w3.org/2000/svg">
<path d="M22.2448 13.7402C22.3827 13.9135 22.5827 14.0002 22.7965 14.0002C22.9413 14.0002 23.0862 13.9535 23.2172 13.8602C23.5206 13.6402 23.5758 13.2202 23.3482 12.9268C22.6793 12.0802 21.6172 11.5735 20.5069 11.5735C19.3965 11.5735 18.3344 12.0802 17.6655 12.9268C17.4379 13.2202 17.4931 13.6402 17.7965 13.8602C18.1 14.0868 18.5344 14.0268 18.762 13.7335C19.1758 13.2068 19.8103 12.9068 20.5069 12.9068C21.2034 12.9068 21.8379 13.2068 22.2517 13.7335L22.2448 13.7402Z" fill="#333C4D"/>
<path d="M24.5484 12.0332C24.6863 12.1999 24.8863 12.2932 25.0932 12.2932C25.238 12.2932 25.3897 12.2465 25.5139 12.1532C25.8173 11.9265 25.8725 11.5065 25.638 11.2199C24.3966 9.67988 22.5277 8.79321 20.5001 8.79321C18.4725 8.79321 16.6035 9.67988 15.3622 11.2199C15.1277 11.5132 15.1828 11.9265 15.4863 12.1532C15.7897 12.3799 16.2242 12.3265 16.4518 12.0332C17.4242 10.8199 18.9001 10.1199 20.5001 10.1199C22.1001 10.1199 23.569 10.8132 24.5484 12.0332Z" fill="#333C4D"/>
<path d="M26.8517 10.3335C26.9897 10.5002 27.1897 10.5935 27.3966 10.5935C27.5414 10.5935 27.6931 10.5468 27.8173 10.4535C28.1207 10.2268 28.169 9.80684 27.9345 9.52017C26.1345 7.28684 23.4242 6.00684 20.4931 6.00684C17.5621 6.00684 14.8517 7.28684 13.0517 9.52017C12.8173 9.8135 12.8724 10.2268 13.169 10.4535C13.4655 10.6802 13.9 10.6268 14.1345 10.3402C15.6724 8.4335 17.9828 7.34017 20.4862 7.34017C22.9897 7.34017 25.3 8.4335 26.8379 10.3402L26.8517 10.3335Z" fill="#333C4D"/>
<path d="M37.7414 26.6667C36.4586 26.6667 35.3897 27.52 35.0793 28.6667H27.3966V27.3333C27.3966 26.9667 27.0862 26.6667 26.7069 26.6667H23.2586V23.3333C23.2586 22.9667 22.9483 22.6667 22.569 22.6667H21.1897V19.9667C26.569 19.62 30.8448 15.2867 30.8448 10C30.8448 4.71333 26.2034 0 20.5 0C14.7966 0 10.1552 4.48667 10.1552 10C10.1552 15.5133 14.431 19.62 19.8103 19.9667V22.6667H18.431C18.0517 22.6667 17.7414 22.9667 17.7414 23.3333V26.6667H14.2931C13.9138 26.6667 13.6034 26.9667 13.6034 27.3333V28.6667H5.92069C5.61034 27.52 4.54138 26.6667 3.25862 26.6667C1.73448 26.6667 0.5 27.86 0.5 29.3333C0.5 30.8067 1.73448 32 3.25862 32C4.54138 32 5.61034 31.1467 5.92069 30H13.6034V31.3333C13.6034 31.7 13.9138 32 14.2931 32H16.3621V33.7667L13.9621 36.6667H10.7483C10.4379 35.52 9.36897 34.6667 8.08621 34.6667C6.56207 34.6667 5.32759 35.86 5.32759 37.3333C5.32759 38.8067 6.56207 40 8.08621 40C9.36897 40 10.4379 39.1467 10.7483 38H14.2931C14.5 38 14.7 37.9067 14.831 37.7467L17.5897 34.4133C17.6862 34.2933 17.7414 34.1467 17.7414 34V32H19.8103V34.76C18.6241 35.06 17.7414 36.0933 17.7414 37.3333C17.7414 38.8067 18.9759 40 20.5 40C22.0241 40 23.2586 38.8067 23.2586 37.3333C23.2586 36.0933 22.3759 35.06 21.1897 34.76V32H23.2586V34C23.2586 34.1533 23.3138 34.3 23.4103 34.4133L26.169 37.7467C26.3 37.9067 26.5 38 26.7069 38H30.2517C30.5621 39.1467 31.631 40 32.9138 40C34.4379 40 35.6724 38.8067 35.6724 37.3333C35.6724 35.86 34.4379 34.6667 32.9138 34.6667C31.631 34.6667 30.5621 35.52 30.2517 36.6667H27.0379L24.6379 33.7667V32H26.7069C27.0862 32 27.3966 31.7 27.3966 31.3333V30H35.0793C35.3897 31.1467 36.4586 32 37.7414 32C39.2655 32 40.5 30.8067 40.5 29.3333C40.5 27.86 39.2655 26.6667 37.7414 26.6667ZM3.25862 30.6667C2.5 30.6667 1.87931 30.0667 1.87931 29.3333C1.87931 28.6 2.5 28 3.25862 28C4.01724 28 4.63793 28.6 4.63793 29.3333C4.63793 30.0667 4.01724 30.6667 3.25862 30.6667ZM8.08621 38.6667C7.32759 38.6667 6.7069 38.0667 6.7069 37.3333C6.7069 36.6 7.32759 36 8.08621 36C8.84483 36 9.46552 36.6 9.46552 37.3333C9.46552 38.0667 8.84483 38.6667 8.08621 38.6667ZM32.9138 36C33.6724 36 34.2931 36.6 34.2931 37.3333C34.2931 38.0667 33.6724 38.6667 32.9138 38.6667C32.1552 38.6667 31.5345 38.0667 31.5345 37.3333C31.5345 36.6 32.1552 36 32.9138 36ZM11.5345 10C11.5345 5.22 15.5552 1.33333 20.5 1.33333C25.4448 1.33333 29.4655 5.22 29.4655 10C29.4655 14.78 25.4448 18.6667 20.5 18.6667C15.5552 18.6667 11.5345 14.78 11.5345 10ZM21.8793 37.3333C21.8793 38.0667 21.2586 38.6667 20.5 38.6667C19.7414 38.6667 19.1207 38.0667 19.1207 37.3333C19.1207 36.6 19.7414 36 20.5 36C21.2586 36 21.8793 36.6 21.8793 37.3333ZM26.0172 30.6667H14.9828V28H18.431C18.8103 28 19.1207 27.7 19.1207 27.3333V24H21.8793V27.3333C21.8793 27.7 22.1897 28 22.569 28H26.0172V30.6667ZM37.7414 30.6667C36.9828 30.6667 36.3621 30.0667 36.3621 29.3333C36.3621 28.6 36.9828 28 37.7414 28C38.5 28 39.1207 28.6 39.1207 29.3333C39.1207 30.0667 38.5 30.6667 37.7414 30.6667Z" fill="#333C4D"/>
</svg>
