<svg width="41" height="40" viewBox="0 0 41 40" fill="none" xmlns="http://www.w3.org/2000/svg">
<g clip-path="url(#clip0_47_764)">
<path d="M20.5 27.5C19.0166 27.5 17.5666 27.0601 16.3332 26.236C15.0999 25.4119 14.1386 24.2406 13.5709 22.8701C13.0032 21.4997 12.8547 19.9917 13.1441 18.5368C13.4335 17.082 14.1478 15.7456 15.1967 14.6967C16.2456 13.6478 17.582 12.9335 19.0368 12.6441C20.4917 12.3547 21.9997 12.5032 23.3701 13.0709C24.7406 13.6386 25.9119 14.5999 26.736 15.8332C27.5601 17.0666 28 18.5166 28 20C28 21.9891 27.2098 23.8968 25.8033 25.3033C24.3968 26.7098 22.4891 27.5 20.5 27.5ZM20.5 15C19.5111 15 18.5444 15.2932 17.7222 15.8427C16.8999 16.3921 16.259 17.173 15.8806 18.0866C15.5022 19.0002 15.4032 20.0055 15.5961 20.9755C15.789 21.9454 16.2652 22.8363 16.9645 23.5355C17.6637 24.2348 18.5546 24.711 19.5246 24.9039C20.4945 25.0969 21.4998 24.9978 22.4134 24.6194C23.3271 24.241 24.1079 23.6001 24.6574 22.7779C25.2068 21.9556 25.5 20.9889 25.5 20C25.5 18.6739 24.9732 17.4022 24.0355 16.4645C23.0979 15.5268 21.8261 15 20.5 15Z" fill="#333C4D"/>
<path d="M21.75 40H19.25C18.2554 40 17.3016 39.6049 16.5983 38.9016C15.8951 38.1984 15.5 37.2446 15.5 36.25V34.125C15.0064 33.9508 14.5224 33.7505 14.05 33.525L12.55 35.025C11.8315 35.7004 10.8811 36.0743 9.89501 36.0697C8.90889 36.065 7.96214 35.6821 7.25 35L5.5 33.25C4.79775 32.5469 4.4033 31.5938 4.4033 30.6C4.4033 29.6062 4.79775 28.6531 5.5 27.95L7 26.45C6.76597 25.9782 6.55734 25.4941 6.375 25H4.25C3.25544 25 2.30161 24.6049 1.59835 23.9017C0.895088 23.1984 0.5 22.2446 0.5 21.25L0.5 18.75C0.5 17.7554 0.895088 16.8016 1.59835 16.0983C2.30161 15.3951 3.25544 15 4.25 15H6.375C6.54917 14.5064 6.74946 14.0224 6.975 13.55L5.5 12.05C4.79775 11.3469 4.4033 10.3938 4.4033 9.4C4.4033 8.40625 4.79775 7.45313 5.5 6.75L7.25 5C7.96535 4.32124 8.91388 3.94285 9.9 3.94285C10.8861 3.94285 11.8347 4.32124 12.55 5L14.05 6.5C14.5218 6.26597 15.0059 6.05734 15.5 5.875V3.75C15.5 2.75544 15.8951 1.80161 16.5983 1.09835C17.3016 0.395088 18.2554 0 19.25 0L21.75 0C22.7446 0 23.6984 0.395088 24.4017 1.09835C25.1049 1.80161 25.5 2.75544 25.5 3.75V5.875C25.9936 6.04917 26.4776 6.24946 26.95 6.475L28.45 4.975C29.1685 4.2996 30.1189 3.92568 31.105 3.93033C32.0911 3.93498 33.0379 4.31786 33.75 5L35.5 6.75C36.2023 7.45313 36.5967 8.40625 36.5967 9.4C36.5967 10.3938 36.2023 11.3469 35.5 12.05L34 13.55C34.2255 14.0224 34.4258 14.5064 34.6 15H36.725C37.2196 14.9967 37.7099 15.0913 38.1677 15.2782C38.6256 15.4652 39.042 15.7409 39.3928 16.0895C39.7437 16.438 40.0222 16.8525 40.2122 17.3091C40.4022 17.7657 40.5 18.2554 40.5 18.75V21.25C40.5 22.2446 40.1049 23.1984 39.4016 23.9017C38.6984 24.6049 37.7446 25 36.75 25H34.625C34.4508 25.4936 34.2505 25.9776 34.025 26.45L35.525 27.95C36.2273 28.6531 36.6217 29.6062 36.6217 30.6C36.6217 31.5938 36.2273 32.5469 35.525 33.25L33.75 35C33.0347 35.6788 32.0861 36.0572 31.1 36.0572C30.1139 36.0572 29.1653 35.6788 28.45 35L26.95 33.5C26.4776 33.7255 25.9936 33.9258 25.5 34.1V36.225C25.5033 36.7196 25.4087 37.2099 25.2218 37.6677C25.0348 38.1256 24.7591 38.542 24.4105 38.8928C24.062 39.2437 23.6475 39.5222 23.1909 39.7122C22.7343 39.9022 22.2446 40 21.75 40ZM13.575 30.45L14.4 30.9C15.2455 31.3702 16.1433 31.7394 17.075 32L17.975 32.25V36.25C17.975 36.5815 18.1067 36.8995 18.3411 37.1339C18.5755 37.3683 18.8935 37.5 19.225 37.5H21.725C22.0565 37.5 22.3745 37.3683 22.6089 37.1339C22.8433 36.8995 22.975 36.5815 22.975 36.25V32.275L23.875 32.025C24.8067 31.7644 25.7045 31.3952 26.55 30.925L27.375 30.475L30.175 33.275C30.4129 33.5056 30.7312 33.6346 31.0625 33.6346C31.3938 33.6346 31.7121 33.5056 31.95 33.275L33.725 31.5C33.8422 31.3838 33.9352 31.2455 33.9986 31.0932C34.0621 30.9409 34.0947 30.7775 34.0947 30.6125C34.0947 30.4475 34.0621 30.2841 33.9986 30.1318C33.9352 29.9795 33.8422 29.8412 33.725 29.725L30.925 26.925L31.375 26.1C31.8452 25.2545 32.2144 24.3567 32.475 23.425L32.725 22.525H36.75C37.0815 22.525 37.3995 22.3933 37.6339 22.1589C37.8683 21.9245 38 21.6065 38 21.275V18.775C38 18.4435 37.8683 18.1255 37.6339 17.8911C37.3995 17.6567 37.0815 17.525 36.75 17.525H32.775L32.525 16.625C32.2644 15.6933 31.8952 14.7955 31.425 13.95L30.975 13.125L33.75 10.275C33.8672 10.1588 33.9602 10.0205 34.0236 9.86822C34.0871 9.7159 34.1197 9.55252 34.1197 9.3875C34.1197 9.22249 34.0871 9.0591 34.0236 8.90678C33.9602 8.75446 33.8672 8.6162 33.75 8.5L32 6.75C31.7621 6.51938 31.4438 6.39041 31.1125 6.39041C30.7812 6.39041 30.4629 6.51938 30.225 6.75L27.425 9.55L26.6 9.1C25.7545 8.62983 24.8567 8.26063 23.925 8L23 7.725V3.75C23 3.41848 22.8683 3.10054 22.6339 2.86612C22.3995 2.6317 22.0815 2.5 21.75 2.5H19.25C18.9185 2.5 18.6005 2.6317 18.3661 2.86612C18.1317 3.10054 18 3.41848 18 3.75V7.725L17.1 7.975C16.1683 8.23563 15.2705 8.60483 14.425 9.075L13.6 9.525L10.775 6.75C10.5371 6.51938 10.2188 6.39041 9.8875 6.39041C9.55618 6.39041 9.23787 6.51938 9 6.75L7.25 8.5C7.13284 8.6162 7.03985 8.75446 6.97639 8.90678C6.91292 9.0591 6.88025 9.22249 6.88025 9.3875C6.88025 9.55252 6.91292 9.7159 6.97639 9.86822C7.03985 10.0205 7.13284 10.1588 7.25 10.275L10.05 13.075L9.6 13.9C9.12983 14.7455 8.76063 15.6433 8.5 16.575L8.225 17.5H4.25C3.91848 17.5 3.60054 17.6317 3.36612 17.8661C3.1317 18.1005 3 18.4185 3 18.75V21.25C3 21.5815 3.1317 21.8995 3.36612 22.1339C3.60054 22.3683 3.91848 22.5 4.25 22.5H8.225L8.475 23.4C8.73563 24.3317 9.10483 25.2295 9.575 26.075L10.025 26.9L7.25 29.725C7.13284 29.8412 7.03985 29.9795 6.97639 30.1318C6.91292 30.2841 6.88025 30.4475 6.88025 30.6125C6.88025 30.7775 6.91292 30.9409 6.97639 31.0932C7.03985 31.2455 7.13284 31.3838 7.25 31.5L9.025 33.275C9.26288 33.5056 9.58118 33.6346 9.9125 33.6346C10.2438 33.6346 10.5621 33.5056 10.8 33.275L13.575 30.45Z" fill="#333C4D"/>
</g>
<defs>
<clipPath id="clip0_47_764">
<rect width="40" height="40" fill="white" transform="translate(0.5)"/>
</clipPath>
</defs>
</svg>
