<svg width="45" height="45" viewBox="0 0 45 45" fill="none" xmlns="http://www.w3.org/2000/svg">
<g clip-path="url(#clip0_82_15)">
<path d="M22.5 0.703125C10.4766 0.703125 0.703125 10.4766 0.703125 22.5C0.703125 34.5234 10.4766 44.2969 22.5 44.2969C34.5234 44.2969 44.2969 34.5234 44.2969 22.5C44.2969 10.4766 34.5234 0.703125 22.5 0.703125ZM33.7781 29.5734L26.7469 36.6047C26.3391 37.0125 25.8047 37.2234 25.2562 37.2234C24.9891 37.2234 24.7078 37.1813 24.4547 37.0688C23.6672 36.7453 23.1469 35.9719 23.1469 35.1141V9.88594C23.1469 8.71875 24.0891 7.77656 25.2562 7.77656C26.4234 7.77656 27.3656 8.71875 27.3656 9.88594V30.0234L30.7969 26.5922C31.6266 25.7766 32.9484 25.7766 33.7781 26.5922C34.6078 27.4219 34.6078 28.7578 33.7781 29.5734ZM21.8531 35.1141C21.8531 36.2812 20.9109 37.2234 19.7437 37.2234C18.5766 37.2234 17.6344 36.2812 17.6344 35.1141V14.9766L14.2031 18.4078C13.3734 19.2234 12.0516 19.2234 11.2219 18.4078C11.0246 18.2129 10.868 17.9808 10.7611 17.7249C10.6541 17.4691 10.5991 17.1945 10.5991 16.9172C10.5991 16.6399 10.6541 16.3653 10.7611 16.1094C10.868 15.8536 11.0246 15.6215 11.2219 15.4266L18.2531 8.39531C18.5473 8.09861 18.9232 7.89617 19.3328 7.81376C19.7424 7.73135 20.1673 7.7727 20.5533 7.93255C20.9394 8.0924 21.2691 8.36351 21.5006 8.71137C21.7321 9.05923 21.8548 9.46811 21.8531 9.88594V35.1141Z" fill="#333C4D"/>
</g>
<defs>
<clipPath id="clip0_82_15">
<rect width="45" height="45" fill="white"/>
</clipPath>
</defs>
</svg>
