<svg width="40" height="40" viewBox="0 0 40 40" fill="none" xmlns="http://www.w3.org/2000/svg">
<path fill-rule="evenodd" clip-rule="evenodd" d="M4.61538 0C3.39131 0 2.21737 0.486263 1.35181 1.35181C0.486262 2.21737 0 3.39131 0 4.61538L0 10.7692C0 11.1773 0.162087 11.5686 0.450605 11.8571C0.739123 12.1456 1.13044 12.3077 1.53846 12.3077H10.7692C11.5853 12.3077 12.3679 12.6319 12.9449 13.2089C13.522 13.7859 13.8462 14.5686 13.8462 15.3846V24.6154C13.8462 25.0234 14.0082 25.4147 14.2968 25.7032C14.5853 25.9918 14.9766 26.1538 15.3846 26.1538H24.6154C25.4314 26.1538 26.2141 26.478 26.7911 27.0551C27.3681 27.6321 27.6923 28.4147 27.6923 29.2308V38.4615C27.6923 38.8696 27.8544 39.2609 28.1429 39.5494C28.4314 39.8379 28.8227 40 29.2308 40H35.3846C36.6087 40 37.7826 39.5137 38.6482 38.6482C39.5137 37.7826 40 36.6087 40 35.3846V4.61538C40 3.39131 39.5137 2.21737 38.6482 1.35181C37.7826 0.486263 36.6087 0 35.3846 0H4.61538ZM34.6154 7.69231C35.2274 7.69231 35.8144 7.44918 36.2472 7.0164C36.6799 6.58362 36.9231 5.99665 36.9231 5.38462C36.9231 4.77258 36.6799 4.18561 36.2472 3.75283C35.8144 3.32005 35.2274 3.07692 34.6154 3.07692C34.0033 3.07692 33.4164 3.32005 32.9836 3.75283C32.5508 4.18561 32.3077 4.77258 32.3077 5.38462C32.3077 5.99665 32.5508 6.58362 32.9836 7.0164C33.4164 7.44918 34.0033 7.69231 34.6154 7.69231Z" fill="#333C4D"/>
<path d="M10.7692 13.8462H1.53846C0.688793 13.8462 0 14.535 0 15.3847V24.6154C0 25.4651 0.688793 26.1539 1.53846 26.1539H10.7692C11.6189 26.1539 12.3077 25.4651 12.3077 24.6154V15.3847C12.3077 14.535 11.6189 13.8462 10.7692 13.8462Z" fill="#333C4D"/>
<path d="M0 29.2306C0 28.8226 0.162087 28.4313 0.450605 28.1427C0.739123 27.8542 1.13044 27.6921 1.53846 27.6921H10.7692C11.1773 27.6921 11.5686 27.8542 11.8571 28.1427C12.1456 28.4313 12.3077 28.8226 12.3077 29.2306V38.4614C12.3077 38.8694 12.1456 39.2607 11.8571 39.5492C11.5686 39.8377 11.1773 39.9998 10.7692 39.9998H4.61538C3.39131 39.9998 2.21737 39.5136 1.35181 38.648C0.486262 37.7825 0 36.6085 0 35.3844L0 29.2306Z" fill="#333C4D"/>
<path d="M24.6154 27.6921H15.3846C14.5349 27.6921 13.8461 28.3809 13.8461 29.2306V38.4614C13.8461 39.311 14.5349 39.9998 15.3846 39.9998H24.6154C25.465 39.9998 26.1538 39.311 26.1538 38.4614V29.2306C26.1538 28.3809 25.465 27.6921 24.6154 27.6921Z" fill="#333C4D"/>
</svg>
